<svg width="221" height="51" viewBox="0 0 221 51" fill="none" xmlns="http://www.w3.org/2000/svg">
<path fill-rule="evenodd" clip-rule="evenodd" d="M21.228 21.629L6.37749 50.627L0 50.6531L17.9091 15.1771L21.228 21.629ZM14.6771 48.0826L20.7495 35.7704L27.2079 35.8526L24.5273 42.3245L39.9811 42.3957L22.0312 6.75269L25.3086 0.335144C33.3275 16.2335 41.4737 32.2777 49.3614 48.1377H14.8266L14.6492 48.1341L14.6771 48.0826Z" fill="black"/>
<mask id="mask0_541_1371" style="mask-type:luminance" maskUnits="userSpaceOnUse" x="0" y="0" width="50" height="51">
<path d="M21.228 21.629L6.37749 50.627L0 50.6531L17.9091 15.1771L21.228 21.629ZM14.6771 48.0826L20.7495 35.7704L27.2079 35.8526L24.5273 42.3245L39.9811 42.3957L22.0312 6.75269L25.3086 0.335144C33.3275 16.2335 41.4737 32.2777 49.3614 48.1377H14.8266L14.6492 48.1341L14.6771 48.0826Z" fill="white"/>
</mask>
<g mask="url(#mask0_541_1371)">
<path d="M49.3625 42.3381H13.2578V48.1381H49.3625V42.3381Z" fill="#009FE3"/>
</g>
<mask id="mask1_541_1371" style="mask-type:luminance" maskUnits="userSpaceOnUse" x="0" y="0" width="50" height="51">
<path d="M21.228 21.629L6.37749 50.627L0 50.6531L17.9091 15.1771L21.228 21.629ZM14.6771 48.0826L20.7495 35.7704L27.2079 35.8526L24.5273 42.3245L39.9811 42.3957L22.0312 6.75269L25.3086 0.335144C33.3275 16.2335 41.4737 32.2777 49.3614 48.1377H14.8266L14.6492 48.1341L14.6771 48.0826Z" fill="white"/>
</mask>
<g mask="url(#mask1_541_1371)">
<path d="M28.0512 34.4801H16.9219V44.1719H28.0512V34.4801Z" fill="#009FE3"/>
</g>
<path fill-rule="evenodd" clip-rule="evenodd" d="M43.0547 48.1377L44.3599 50.6649L50.608 50.5826L49.3632 48.1377H43.0547Z" fill="black"/>
<path d="M203.366 40.8659V37.872H204.862C205.754 37.872 206.155 38.3029 206.155 39.3035C206.155 40.3216 205.754 40.8659 204.862 40.8659H203.366ZM204.871 41.8925C206.552 41.8925 207.381 40.9653 207.381 39.3039C207.381 37.6542 206.552 36.8503 204.871 36.8503H202.171V44.174H203.366V41.8925H204.871ZM192.287 41.8285V36.8503H191.082V41.8081C191.082 43.5679 192.032 44.2874 193.783 44.2874C195.551 44.2874 196.509 43.5679 196.509 41.8081V36.8503H195.302V41.8285C195.302 42.8152 194.774 43.2507 193.783 43.2507C192.804 43.2504 192.287 42.8198 192.287 41.8285ZM182.74 44.2874C185.042 44.2874 185.73 43.0326 185.73 40.5483C185.73 38.0848 185.042 36.7212 182.74 36.7212C180.437 36.7212 179.735 38.0941 179.735 40.5483C179.735 43.0183 180.425 44.2874 182.74 44.2874ZM182.74 43.2504C181.308 43.2504 180.974 42.3732 180.974 40.5483C180.974 38.7245 181.317 37.7676 182.74 37.7676C184.16 37.7676 184.493 38.7245 184.493 40.5483C184.494 42.4028 184.171 43.2504 182.74 43.2504ZM173.45 39.1858C173.45 39.9497 173.104 40.5344 172.2 40.5344H170.576V37.872H172.178C173.039 37.872 173.45 38.3576 173.45 39.1858ZM172.306 41.5603L173.373 44.174H174.686L173.471 41.2982C174.256 40.9313 174.676 40.2122 174.676 39.1755C174.676 37.5545 173.804 36.8503 172.178 36.8503H169.38V44.174H170.576V41.5603H172.306ZM161.758 41.3672H162.674V43.1567C162.543 43.1863 161.984 43.2504 161.499 43.2504C159.992 43.2504 159.681 42.5023 159.681 40.5147C159.681 38.452 160.057 37.7819 161.532 37.7819C162.511 37.7819 163.813 37.9564 163.813 37.9564L163.856 37.0191C163.856 37.0191 162.479 36.7212 161.348 36.7212C159.155 36.7212 158.442 37.9457 158.442 40.5147C158.442 42.9385 159.044 44.287 161.391 44.287C162.285 44.287 163.758 44.0643 163.856 44.0385V40.3216H161.758V41.3672ZM146.171 36.9698C146.171 36.9698 144.772 36.7159 143.835 36.7159C142.362 36.7159 141.382 37.3209 141.382 38.8043C141.382 40.0781 142.07 40.5533 143.664 40.9653C144.795 41.2281 145.128 41.4416 145.128 42.0606C145.128 42.8348 144.709 43.2411 143.794 43.2411C143.027 43.2411 141.576 43.0472 141.576 43.0472L141.458 43.9999C141.458 43.9999 142.91 44.2874 143.868 44.2874C145.323 44.2874 146.333 43.594 146.333 41.9816C146.333 40.7332 145.773 40.3312 144.224 39.9043C142.964 39.5624 142.576 39.4033 142.576 38.7142C142.576 38.0848 143.04 37.7676 143.943 37.7676C144.567 37.7676 146.074 37.9364 146.074 37.9364L146.171 36.9698ZM136.439 43.0676C135.977 43.1467 135.117 43.2264 134.567 43.2264C133.111 43.2264 132.844 42.5219 132.844 40.5147C132.844 38.4374 133.177 37.7819 134.532 37.7819C135.061 37.7819 135.955 37.8717 136.439 37.9564L136.484 36.9941C136.02 36.89 135.136 36.7212 134.373 36.7212C132.165 36.7212 131.606 37.872 131.606 40.5147C131.606 43.0183 132.121 44.287 134.373 44.287C135.062 44.287 135.965 44.159 136.471 44.0539L136.439 43.0676ZM124.973 44.174H126.168V36.8503H124.973V44.174ZM114.577 37.901H116.673V44.174H117.878V37.901H119.957V36.8503H114.576V37.901H114.577ZM109.804 36.9698C109.804 36.9698 108.405 36.7159 107.469 36.7159C105.992 36.7159 105.016 37.3209 105.016 38.8043C105.016 40.0781 105.704 40.5533 107.296 40.9653C108.427 41.2281 108.76 41.4416 108.76 42.0606C108.76 42.8348 108.341 43.2411 107.428 43.2411C106.661 43.2411 105.209 43.0472 105.209 43.0472L105.089 43.9999C105.089 43.9999 106.542 44.2874 107.502 44.2874C108.954 44.2874 109.967 43.594 109.967 41.9816C109.967 40.7332 109.407 40.3312 107.856 39.9043C106.597 39.5624 106.209 39.4033 106.209 38.7142C106.209 38.0848 106.672 37.7676 107.576 37.7676C108.2 37.7676 109.707 37.9364 109.707 37.9364L109.804 36.9698ZM98.4901 44.174H99.6845V36.8503H98.4901V44.174ZM90.8682 41.3672H91.7826V43.1567C91.6542 43.1863 91.0931 43.2504 90.6107 43.2504C89.1031 43.2504 88.792 42.5023 88.792 40.5147C88.792 38.452 89.1678 37.7819 90.6426 37.7819C91.6213 37.7819 92.9248 37.9564 92.9248 37.9564L92.9663 37.0191C92.9663 37.0191 91.588 36.7212 90.4595 36.7212C88.2631 36.7212 87.5554 37.9457 87.5554 40.5147C87.5554 42.9385 88.1565 44.287 90.502 44.287C91.3957 44.287 92.8711 44.0643 92.9663 44.0385V40.3216H90.8686V41.3672H90.8682ZM79.4582 44.2874C81.7601 44.2874 82.4495 43.0326 82.4495 40.5483C82.4495 38.0848 81.7597 36.7212 79.4582 36.7212C77.1559 36.7212 76.4539 38.0941 76.4539 40.5483C76.4536 43.0183 77.1427 44.2874 79.4582 44.2874ZM79.4582 43.2504C78.0256 43.2504 77.693 42.3732 77.693 40.5483C77.693 38.7245 78.0367 37.7676 79.4582 37.7676C80.8793 37.7676 81.2104 38.7245 81.2104 40.5483C81.2104 42.4028 80.8886 43.2504 79.4582 43.2504ZM71.8984 44.174V43.1077H68.9607V36.8503H67.7656V44.174H71.8984Z" fill="black"/>
<path d="M220.176 28.6197H215.967L207.551 16.8396V28.6197H203.341V8.98663H207.559L215.967 20.7489V8.98663H220.176L220.176 28.6197ZM185.842 24.7229V12.8802H177.426V24.7229H185.842ZM190.049 25.8083C190.049 26.5825 189.775 27.2419 189.222 27.798C188.671 28.3469 188.011 28.6197 187.245 28.6197H176.025C175.257 28.6197 174.597 28.3469 174.046 27.798C173.494 27.2419 173.217 26.5825 173.217 25.8083V11.7902C173.217 11.0232 173.494 10.3648 174.046 9.80983C174.597 9.25627 175.257 8.98663 176.025 8.98663H187.245C188.012 8.98663 188.671 9.25627 189.222 9.80983C189.775 10.3648 190.049 11.0232 190.049 11.7902V25.8083ZM159.923 28.6197H147.302C146.534 28.6197 145.875 28.3469 145.324 27.798C144.77 27.2419 144.496 26.5825 144.496 25.8083V8.98663H148.704V24.7229H159.924V28.6197H159.923ZM123.912 20.2304L121.51 14.2219L119.135 20.2304H123.912ZM132.043 28.6197H127.243L125.474 24.1329H117.572L115.778 28.6197H111.004L118.858 8.98663H124.19L132.043 28.6197ZM104.023 8.98663L96.1664 28.6197H90.8357L82.982 8.98663H87.7885L93.518 23.3844L99.249 8.98663H104.023ZM67.8725 20.2304L65.468 14.2219L63.0925 20.2304H67.8725ZM76.0023 28.6197H71.1986L69.4313 24.1329H61.5297L59.7349 28.6197H54.9609L62.8164 8.98663H68.1468L76.0023 28.6197Z" fill="black"/>
</svg>
